# xmcd
#
# Track frame offsets:
#	150
#	14550
#	27523
#	47963
#	65589
#	81531
#	101559
#	114606
#	127680
#	141250
#	158562
#	175309
#	197434
#	212284
#	221705
#	237776
#	248679
#	260151
#	272947
#	286134
#
# Disc length: 3991 seconds
# Revision: 0
# Processed by: cddbd v1.5.2PL0 Copyright (c) Steve Scherf et al.
# Submitted via: dBpowerAMP V12.0
#
DISCID=290f9514
DTITLE=Various Artist - Best Country Album 3
DYEAR=2019
DGENRE=Country
TTITLE0=Glen Campbell - Rhinestone Cowboy
TTITLE1=Dr. Hook - When You're In Love With A Beautiful Woman
TTITLE2=Sheryl Crow - All I Wanna Do
TTITLE3=Lady Antebellum - Need You Now
TTITLE4=Shania Twain - You're Still The One
TTITLE5=Lonestar - Amazed
TTITLE6=Dolly Parton - I Will Always Love You
TTITLE7=Crystal Gayle - Talking In Your Sleep
TTITLE8=John Denver - Annie's Song
TTITLE9=Kenny Chesney - You Had Me From Hello
TTITLE10=Ronnie Milsap - Smokey Mountain Rain
TTITLE11=Lee Ann Womack - I Hope You Dance
TTITLE12=Alabama - Love In The First Degree
TTITLE13=Waylon Jennings - Theme From The Dukes Of Hazzard (Good Ol' Boys)
TTITLE14=Kenny Rogers - Lucille
TTITLE15=Roger Miller - King Of The Road
TTITLE16=Johnny Cash - I Walk The Line
TTITLE17=Patsy Cline and The Jordanaires - I Fall To Pieces
TTITLE18=Tammy Wynette - D-I-V-O-R-C-E
TTITLE19=Charlie Rich - Behind Closed Doors
EXTD=
EXTT0=
EXTT1=
EXTT2=
EXTT3=
EXTT4=
EXTT5=
EXTT6=
EXTT7=
EXTT8=
EXTT9=
EXTT10=
EXTT11=
EXTT12=
EXTT13=
EXTT14=
EXTT15=
EXTT16=
EXTT17=
EXTT18=
EXTT19=
PLAYORDER=
